<?xml version="1.0" standalone="no"?>
<!DOCTYPE svg PUBLIC "-//W3C//DTD SVG 20010904//EN"
 "http://www.w3.org/TR/2001/REC-SVG-20010904/DTD/svg10.dtd">
<svg version="1.0" xmlns="http://www.w3.org/2000/svg"
 width="260.000000pt" height="260.000000pt" viewBox="0 0 260.000000 260.000000"
 preserveAspectRatio="xMidYMid meet">
<metadata>
Created by potrace 1.11, written by Peter Selinger 2001-2013
</metadata>
<g transform="translate(0.000000,260.000000) scale(0.100000,-0.100000)"
fill="#000000" stroke="none">
<path d="M170 1296 l0 -776 98 0 97 0 0 285 c0 157 2 285 5 286 3 1 68 2 145
4 128 2 186 7 270 21 41 7 154 53 190 77 45 30 109 102 133 150 60 119 71 302
27 426 -33 94 -111 181 -203 226 -123 60 -206 72 -509 74 l-253 2 0 -775z
m528 609 c49 -7 133 -44 166 -73 57 -51 89 -140 88 -250 -1 -149 -51 -241
-158 -292 -66 -31 -115 -38 -277 -39 l-152 -2 0 328 c-1 180 3 330 7 334 11 7
267 3 326 -6z"/>
<path d="M1449 2058 c-3 -43 -4 -1515 -1 -1525 3 -9 32 -13 101 -13 l96 0 -1
370 -1 370 293 0 292 0 1 -357 c0 -197 0 -364 0 -371 1 -10 24 -12 98 -10 l96
3 -1 760 c0 418 -1 766 -1 773 -1 9 -27 12 -96 12 l-95 0 -1 -42 c0 -24 0
-170 -1 -325 l0 -283 -292 0 -293 0 -1 308 c0 169 -1 315 -1 325 -1 15 -13 17
-96 17 -69 0 -95 -3 -96 -12z"/>
</g>
</svg>
